<svg width="16" height="16" viewBox="0 0 16 16" fill="none" xmlns="http://www.w3.org/2000/svg">
<path d="M2.43708 5.45551C2.25299 5.13665 2.36224 4.72892 2.6811 4.54483L7.66638 1.66658C7.98524 1.48248 8.39297 1.59173 8.57706 1.91059C8.76116 2.22945 8.6519 2.63718 8.33304 2.82128L3.34777 5.69953C3.02891 5.88362 2.62118 5.77437 2.43708 5.45551Z" fill="white"/>
<path d="M7.56673 8.25045C7.42866 8.01131 7.5106 7.70551 7.74975 7.56744L12.735 4.68919C12.9742 4.55112 13.28 4.63306 13.418 4.8722C13.5561 5.11135 13.4742 5.41714 13.235 5.55521L8.24975 8.43347C8.0106 8.57154 7.7048 8.4896 7.56673 8.25045Z" fill="white"/>
<path d="M7.42235 14.0598C7.23826 13.7409 7.34751 13.3332 7.66637 13.1491L12.6516 10.2709C12.9705 10.0868 13.3782 10.196 13.5623 10.5149C13.7464 10.8337 13.6372 11.2415 13.3183 11.4256L8.33304 14.3038C8.01418 14.4879 7.60645 14.3787 7.42235 14.0598Z" fill="white"/>
<path d="M7.4224 1.91061C7.60649 1.59175 8.01422 1.4825 8.33308 1.66659L13.3184 4.54484C13.6372 4.72894 13.7465 5.13666 13.5624 5.45553C13.3783 5.77439 12.9705 5.88364 12.6517 5.69954L7.66641 2.82129C7.34755 2.6372 7.2383 2.22947 7.4224 1.91061Z" fill="white"/>
<path d="M2.4371 10.5453C2.6212 10.2265 3.02893 10.1172 3.34779 10.3013L8.33306 13.1796C8.65193 13.3637 8.76118 13.7714 8.57708 14.0903C8.39299 14.4091 7.98526 14.5184 7.6664 14.3343L2.68112 11.456C2.36226 11.2719 2.25301 10.8642 2.4371 10.5453Z" fill="white"/>
<path d="M2.58142 4.87218C2.71949 4.63303 3.02529 4.55109 3.26443 4.68916L8.24971 7.56741C8.48886 7.70549 8.57079 8.01128 8.43272 8.25043C8.29465 8.48957 7.98886 8.57151 7.74971 8.43344L2.76443 5.55519C2.52529 5.41712 2.44335 5.11132 2.58142 4.87218Z" fill="white"/>
<path d="M3.01443 4.45551C3.38262 4.45551 3.6811 4.75399 3.6811 5.12218L3.6811 10.8787C3.6811 11.2469 3.38262 11.5453 3.01443 11.5453C2.64624 11.5453 2.34777 11.2469 2.34777 10.8787L2.34777 5.12218C2.34777 4.75399 2.64624 4.45551 3.01443 4.45551Z" fill="white"/>
<path d="M12.985 4.45551C13.3532 4.45551 13.6517 4.75399 13.6517 5.12218L13.6517 10.8635C13.6517 11.2317 13.3532 11.5301 12.985 11.5301C12.6168 11.5301 12.3184 11.2317 12.3184 10.8635V5.12218C12.3184 4.75399 12.6168 4.45551 12.985 4.45551Z" fill="white"/>
<path d="M7.9997 7.50045C8.27585 7.50045 8.4997 7.72431 8.4997 8.00045V13.7265C8.4997 14.0026 8.27585 14.2265 7.9997 14.2265C7.72356 14.2265 7.4997 14.0026 7.4997 13.7265V8.00045C7.4997 7.72431 7.72356 7.50045 7.9997 7.50045Z" fill="white"/>
<path d="M7.9997 4.12218C8.27585 4.12218 8.4997 4.34603 8.4997 4.62218V5.62218C8.4997 5.89832 8.27585 6.12218 7.9997 6.12218C7.72356 6.12218 7.4997 5.89832 7.4997 5.62218V4.62218C7.4997 4.34603 7.72356 4.12218 7.9997 4.12218Z" fill="white"/>
<path d="M9.6263 8.92434C9.76437 8.68519 10.0702 8.60326 10.3093 8.74133L11.1753 9.24133C11.4145 9.3794 11.4964 9.68519 11.3584 9.92434C11.2203 10.1635 10.9145 10.2454 10.6753 10.1074L9.80932 9.60735C9.57017 9.46928 9.48823 9.16349 9.6263 8.92434Z" fill="white"/>
<path d="M6.37311 8.92434C6.51118 9.16349 6.42924 9.46928 6.19009 9.60735L5.32407 10.1074C5.08492 10.2454 4.77913 10.1635 4.64106 9.92434C4.50298 9.68519 4.58492 9.3794 4.82407 9.24133L5.69009 8.74133C5.92924 8.60326 6.23503 8.68519 6.37311 8.92434Z" fill="white"/>
</svg>
